<svg xmlns="http://www.w3.org/2000/svg" viewBox="0 0 148.004 40.577"><g transform="translate(0.001 0.005)"><path d="M32.216,31.784a3.784,3.784,0,0,1,0-5.229,3.67,3.67,0,0,1,6.141,1.559,4.146,4.146,0,0,1,0,2.11,3.706,3.706,0,0,1-6.141,1.559ZM143,25.9a3.782,3.782,0,0,1,0,5.228,3.67,3.67,0,0,1-6.141-1.559,4.145,4.145,0,0,1,0-2.11A3.706,3.706,0,0,1,143,25.9Zm-6.141,9.2a8.092,8.092,0,0,0,3.458.713,7.582,7.582,0,0,0,5.474-2.124A6.972,6.972,0,0,0,148,28.462a6.907,6.907,0,0,0-2.137-5.175,7.452,7.452,0,0,0-5.406-2.069,7.93,7.93,0,0,0-3.6.8V21.49h-3.949V40.552h3.949ZM117.308,24a6.976,6.976,0,0,0-2.205,5.229A6.907,6.907,0,0,0,117.24,34.4a7.46,7.46,0,0,0,5.406,2.069,7.558,7.558,0,0,0,5.474-2.137,7.018,7.018,0,0,0,2.206-5.243,6.85,6.85,0,0,0-2.139-5.158,7.482,7.482,0,0,0-5.406-2.056A7.586,7.586,0,0,0,117.307,24Zm5.392,1.5a3.541,3.541,0,0,1,2.629,1.062,3.7,3.7,0,1,1-5.229,0,3.513,3.513,0,0,1,2.6-1.069Zm-17.129,0a3.707,3.707,0,0,1,2.628,6.291,3.7,3.7,0,0,1-5.229-5.229,3.514,3.514,0,0,1,2.6-1.069ZM100.179,24a6.974,6.974,0,0,0-2.206,5.229,6.907,6.907,0,0,0,2.138,5.175,7.456,7.456,0,0,0,5.406,2.069,7.556,7.556,0,0,0,5.473-2.137,7.014,7.014,0,0,0,2.206-5.243,6.856,6.856,0,0,0-2.138-5.158,7.484,7.484,0,0,0-5.406-2.056A7.582,7.582,0,0,0,100.178,24Zm-8.934-6.863V36.2h4V17.133ZM64.23,24a6.975,6.975,0,0,0-2.206,5.229A6.907,6.907,0,0,0,64.162,34.4a7.458,7.458,0,0,0,5.406,2.069,7.56,7.56,0,0,0,5.474-2.137,7.02,7.02,0,0,0,2.206-5.243A6.852,6.852,0,0,0,75.11,23.93a7.484,7.484,0,0,0-5.41-2.056A7.585,7.585,0,0,0,64.23,24Zm2.792,2.56a3.5,3.5,0,0,1,2.6-1.062A3.54,3.54,0,0,1,72.25,26.56a3.7,3.7,0,1,1-5.229,0Zm-6.9,2.532a6.862,6.862,0,0,0-2.137-5.16,7.482,7.482,0,0,0-5.406-2.056A7.585,7.585,0,0,0,47.1,24a6.967,6.967,0,0,0-2.2,5.229A6.906,6.906,0,0,0,47.033,34.4a7.451,7.451,0,0,0,5.406,2.069,7.557,7.557,0,0,0,5.474-2.137,7.018,7.018,0,0,0,2.206-5.243ZM52.5,25.5a3.539,3.539,0,0,1,2.628,1.062,3.7,3.7,0,1,1-5.229,0,3.513,3.513,0,0,1,2.6-1.067Zm27.342-3.35V36.2h3.948V30.4q0-4.494,4.14-4.493h.818l.053-4.031a5.349,5.349,0,0,0-5.011,2.59V22.144Zm-41.476.441a8.107,8.107,0,0,0-3.459-.714A7.583,7.583,0,0,0,29.427,24a6.973,6.973,0,0,0-2.206,5.229A6.907,6.907,0,0,0,29.359,34.4a7.451,7.451,0,0,0,5.406,2.069,7.93,7.93,0,0,0,3.6-.8v.525h3.949V17.133h-3.95Z" transform="translate(0 -7)" fill="currentColor" fill-rule="evenodd"></path><path d="M11.6,34.745q-2.486.373-5.152.781a1.573,1.573,0,0,1-1.811-1.647V20.237a2.353,2.353,0,0,0-2.264-2.363A2.348,2.348,0,0,0,0,20.237V36.916A3.656,3.656,0,0,0,1.29,39.8a3.535,3.535,0,0,0,2.971.688l3.778-.746c1.217-.238,2.4-.479,3.56-.709l3.261-.645,3.09-.612a3.472,3.472,0,0,0,2.113-1.465,4.664,4.664,0,0,0,.842-2.669V22.575a2.386,2.386,0,0,1-3.241,0V26.2l.007,5.941a1.886,1.886,0,0,1-1.426,1.9Q14,34.382,11.6,34.745Z" fill="#ff4998" fill-rule="evenodd"></path><path d="M17.664,13.887v6.446a1.8,1.8,0,0,0,1.651,1.87,1.821,1.821,0,0,0,1.585-1.87V6.934a4.688,4.688,0,0,0-.847-2.676,3.5,3.5,0,0,0-2.122-1.479L14.848,2.17,11.6,1.525,8.046.824,4.277.078A3.516,3.516,0,0,0,1.3.781,3.68,3.68,0,0,0,0,3.674V17.835a3.3,3.3,0,0,1,2.324-.966H2.4a3.28,3.28,0,0,1,2.245.959V6.7A1.569,1.569,0,0,1,6.456,5.06q2.66.4,5.143.784c1.591.245,3.143.475,4.635.7a1.884,1.884,0,0,1,1.426,1.89Z" fill="#01cc74" fill-rule="evenodd"></path><path d="M10.106,19.242a1.176,1.176,0,0,1,.707,1.106,1.126,1.126,0,0,1-1.07,1.172H9.665a1.183,1.183,0,0,1,.079-2.349,1.012,1.012,0,0,1,.362.071Zm5.551,6.121V10.145A1.511,1.511,0,0,0,14.47,8.622c-.937-.118-1.892-.236-2.864-.361-1-.128-2.011-.256-3.052-.386A1.254,1.254,0,0,0,7.163,9.2V31.37A1.257,1.257,0,0,0,8.545,32.7l3.056-.385q1.464-.183,2.868-.363a1.515,1.515,0,0,0,1.192-1.532q0-2.526,0-5.056Z" fill="currentColor" fill-rule="evenodd"></path></g></svg>